<?xml version="1.0" encoding="utf-8"?>
<!-- Generator: Adobe Illustrator 28.2.0, SVG Export Plug-In . SVG Version: 6.00 Build 0)  -->
<svg version="1.1" id="Layer_1" xmlns="http://www.w3.org/2000/svg" xmlns:xlink="http://www.w3.org/1999/xlink" x="0px" y="0px"
	 viewBox="0 0 800 300" style="enable-background:new 0 0 800 300;" xml:space="preserve">
<style type="text/css">
	.st0{fill-rule:evenodd;clip-rule:evenodd;fill:#E91600;}
	.st1{fill:#1D1D1B;}
	.st2{fill-rule:evenodd;clip-rule:evenodd;fill:#1D1D1B;}
</style>
<g>
	<path class="st0" d="M206.2,132.3l19.8-53.2l18,45.2L206.2,132.3z M76.1,159.9l36.6-81l26.4,67.6L76.1,159.9z M114.2,16.4
		L28.5,207.9l119-42.9l9,20.8l35.2,21.6L171,156.6l75.5-26.6l24.4,56.9l34.8,20.5c-25.8-63.7-51.2-126.3-77.1-190l-54.9,121.7
		l-9.5,2L114.2,16.4z"/>
	<path class="st1" d="M324.4,79.6l32.7,94.7L389,79.6h17.5L364,206.4c-9.1,0-4.4,0-13.6,0L306.9,79.6H324.4z M514.2,163.7l16.7,0.1
		c0.9,7.3,1.3,13.7,7,19.1c11.9,11.2,37.5,9,44.9-5.6c3.9-7.6,0.7-16.3-5.6-21.4c-14.6-11.9-35.8-1.2-52.9-20.4
		c-12.8-14.3-11.8-34.9,1.6-47.6c12.1-11.5,32.9-14.8,48.3-9.7c19.1,6.3,27.9,20.5,26.3,40.6h-15.9l-0.1-6.2
		c-0.2-7.1-4-12.6-10.2-16c-13.5-7.5-37.5-4.9-42,12.2c-3.2,12.1,9.2,22.2,20.1,23.8c23.5,3.6,53.9,9.4,48.2,43.3
		c-1,5.6-3.3,10.8-6.9,15.2C569,221.2,512,206.4,514.2,163.7z M435.7,106.6c17-4.9,35.5-0.4,48.7,11.3c14.8,13.1,17.1,27.5,16.3,46
		h-54.5v-17.2H483c-1-3.6-2.5-6.8-4.4-9.8c-8.6-13.2-24.4-18.9-39.3-14.1c-1.8,0.6-3.6,1.4-5.4,2.4c-18.2,10.2-23.9,32.9-11.3,50.3
		c9.3,12.8,19.5,13.4,33.8,15.4v15.6C388.9,206.4,379.2,122.8,435.7,106.6z M700.5,106.6c17-4.9,35.5-0.4,48.7,11.3
		c14.8,13.1,17.1,27.5,16.3,46h-54.5v-17.2h36.9c-1-3.6-2.5-6.8-4.4-9.8c-8.6-13.2-24.4-18.9-39.3-14.1c-1.8,0.6-3.6,1.4-5.4,2.4
		c-18.2,10.2-23.9,32.9-11.3,50.3c9.3,12.8,19.5,13.4,33.8,15.4v15.6C653.7,206.4,644,122.8,700.5,106.6z M614.8,106.6h13.6V60.9h17
		v45.8h13.3v16.9h-13.3v82.9h-17v-82.9h-13.6V106.6z"/>
	<path class="st1" d="M763.9,249.5c-1-0.9-2.1-1.6-3.1-2c-1.1-0.4-2.2-0.6-3.4-0.6c-2.5,0-4.5,0.7-6,2.2c-1.5,1.5-2.2,3.5-2.2,6
		c0,2.5,0.7,4.4,2.1,5.9c1.4,1.4,3.3,2.2,5.6,2.2c1.4,0,2.6-0.2,3.8-0.7c1.2-0.5,2.2-1.1,3.2-2l0,5.1c-1.1,0.6-2.2,1.1-3.4,1.4
		c-1.2,0.3-2.4,0.5-3.7,0.5c-3.7,0-6.8-1.2-9.2-3.5c-2.4-2.3-3.6-5.3-3.6-8.9c0-3.6,1.2-6.5,3.6-8.8c2.4-2.3,5.5-3.5,9.3-3.5
		c1.3,0,2.5,0.1,3.7,0.4c1.2,0.3,2.4,0.7,3.5,1.2L763.9,249.5z M734.7,266.8v-23.5h5v23.5H734.7z M709.2,266.8v-23.5h5v9.4h10.2
		v-9.4h5v23.5h-5V257h-10.2v9.8H709.2z M690.9,266.8v-23.5h5.8c3.1,0,5.3,0.6,6.8,1.8c1.5,1.2,2.2,3,2.2,5.5c0,2.3-0.7,4.1-2.2,5.3
		c-1.5,1.3-3.5,1.9-6.1,1.9H696v9H690.9z M696,254h0.7c1.4,0,2.4-0.3,3-0.8c0.6-0.6,0.9-1.5,0.9-2.7c0-1.2-0.3-2-0.9-2.5
		c-0.6-0.5-1.6-0.8-3-0.8H696V254z M664.8,266.8l8.9-23.5h5.7l9.1,23.5h-5.7l-1.9-5h-9.1l-1.6,5H664.8z M679.7,257.9l-2.6-7.6
		c-0.1-0.2-0.2-0.6-0.3-1.2c-0.1-0.5-0.2-1.2-0.4-2c-0.1,0.8-0.3,1.4-0.4,2c-0.1,0.6-0.2,1-0.3,1.2l-2.5,7.5H679.7z M652.7,253.4
		h0.8c2,0,3.4-0.2,4-0.7c0.7-0.4,1-1.2,1-2.3c0-1.2-0.3-2-1-2.5c-0.7-0.5-2-0.7-3.9-0.7h-0.8V253.4z M664.6,266.8h-5.8l-6.2-11v11
		h-5v-23.5h7.2c2.8,0,5,0.6,6.4,1.7c1.4,1.1,2.1,2.8,2.1,5c0,1.6-0.5,3-1.5,4.1c-1,1.1-2.2,1.8-3.8,2L664.6,266.8z M633,254.4h10.7
		c0,0.1,0,0.3,0,0.4c0,0.2,0,0.4,0,0.7c0,3.5-1,6.4-3,8.5c-2,2.2-4.6,3.3-7.8,3.3c-3.6,0-6.6-1.2-9-3.5c-2.4-2.3-3.5-5.3-3.5-8.9
		c0-3.5,1.2-6.5,3.6-8.8c2.4-2.3,5.4-3.5,9-3.5c1.9,0,3.7,0.4,5.2,1.2c1.6,0.8,3,2,4.3,3.6l-3.4,2.5c-0.8-1-1.7-1.8-2.7-2.3
		c-0.9-0.5-2-0.7-3.2-0.7c-2.3,0-4.2,0.7-5.6,2.2c-1.4,1.4-2.1,3.4-2.1,5.8c0,2.4,0.7,4.3,2.1,5.7c1.4,1.5,3.2,2.2,5.5,2.2
		c1.6,0,3-0.4,4-1.2c1-0.8,1.5-1.8,1.5-3v-0.3H633V254.4z M602.7,266.8l-2-2.3c-1,1-2.1,1.7-3.1,2.2c-1,0.4-2.1,0.7-3.4,0.7
		c-2.3,0-4.1-0.6-5.5-1.8c-1.4-1.2-2-2.9-2-4.9c0-1.3,0.4-2.6,1.2-3.7c0.8-1.1,2.1-2.2,3.7-3.2c-0.9-0.9-1.5-1.7-1.9-2.5
		c-0.4-0.8-0.6-1.7-0.6-2.6c0-1.6,0.6-2.9,1.7-3.8c1.1-1,2.7-1.4,4.6-1.4c1.8,0,3.3,0.4,4.4,1.3c1.1,0.9,1.6,2.1,1.6,3.6
		c0,1-0.3,2-1,2.9c-0.6,0.9-1.7,1.9-3.3,2.9l4,4.6c0.7-0.7,1.3-1.3,1.9-1.9c0.6-0.6,1.1-1.2,1.6-1.8l2.6,2.8
		c-0.5,0.6-1.1,1.2-1.7,1.8c-0.6,0.6-1.2,1.3-1.9,1.9l4.3,5.2H602.7z M598.3,261.7l-4.4-5.3l-0.5,0.4c-0.8,0.6-1.4,1.2-1.8,1.7
		c-0.4,0.6-0.6,1.2-0.6,1.8c0,0.9,0.3,1.6,1,2.2c0.7,0.6,1.4,0.9,2.3,0.9c0.8,0,1.6-0.2,2.2-0.5
		C597.2,262.8,597.8,262.3,598.3,261.7z M595,251.8l0.8-0.5c0.6-0.4,1.1-0.8,1.4-1.3c0.3-0.5,0.5-1,0.5-1.5c0-0.7-0.2-1.2-0.6-1.6
		c-0.4-0.4-0.9-0.6-1.6-0.6c-0.7,0-1.3,0.2-1.7,0.6c-0.4,0.4-0.6,1-0.6,1.7c0,0.3,0.1,0.6,0.2,0.9c0.1,0.3,0.3,0.6,0.5,0.9
		L595,251.8z M559,266.8v-23.5h13.8v4.2H564v4.8h8.8v4.3H564v5.9h8.8v4.3H559z M542.8,266.8v-23.5h5v19.2h8v4.3H542.8z M516.7,266.8
		l8.9-23.5h5.7l9.1,23.5h-5.7l-1.9-5h-9.1l-1.6,5H516.7z M531.6,257.9l-2.6-7.6c-0.1-0.2-0.2-0.6-0.3-1.2c-0.1-0.5-0.2-1.2-0.4-2
		c-0.1,0.8-0.3,1.4-0.4,2c-0.1,0.6-0.2,1-0.3,1.2l-2.5,7.5H531.6z M492.1,266.8v-23.5h5.2l10.4,13.7c0.3,0.4,0.6,0.9,1,1.6
		c0.4,0.7,0.7,1.5,1.1,2.5c-0.1-0.7-0.2-1.4-0.3-2.1c-0.1-0.7-0.1-1.5-0.1-2.6v-13.1h4.8v23.5h-4.9l-10.7-13.9
		c-0.3-0.4-0.6-0.9-1-1.6c-0.4-0.7-0.7-1.5-1.1-2.5c0.1,0.7,0.2,1.4,0.3,2c0.1,0.7,0.1,1.6,0.1,2.6v13.4H492.1z M475.4,263
		c2.1,0,3.9-0.7,5.3-2.2c1.4-1.5,2.1-3.4,2.1-5.6c0-2.2-0.7-4.1-2.1-5.6c-1.4-1.5-3.1-2.3-5.2-2.3c-2.1,0-3.9,0.8-5.3,2.3
		c-1.4,1.5-2.1,3.4-2.1,5.6c0,2.3,0.7,4.1,2.1,5.6C471.4,262.2,473.2,263,475.4,263z M487.9,255.1c0,1.7-0.3,3.3-0.9,4.8
		c-0.6,1.5-1.5,2.8-2.7,3.9c-1.2,1.2-2.6,2.1-4.1,2.7c-1.5,0.6-3.1,0.9-4.7,0.9c-1.4,0-2.8-0.2-4.2-0.7c-1.4-0.5-2.6-1.2-3.8-2.1
		c-1.5-1.2-2.6-2.6-3.4-4.2c-0.8-1.6-1.2-3.4-1.2-5.3c0-1.7,0.3-3.3,0.9-4.8c0.6-1.5,1.5-2.8,2.7-3.9c1.2-1.1,2.5-2,4.1-2.7
		c1.6-0.6,3.2-0.9,4.8-0.9c1.6,0,3.2,0.3,4.8,0.9c1.5,0.6,2.9,1.5,4.1,2.7c1.2,1.2,2.1,2.5,2.7,4
		C487.5,251.9,487.9,253.5,487.9,255.1z M453.5,266.8v-23.5h5v23.5H453.5z M433.5,263.8l2.8-3.2c0.4,0.9,0.9,1.5,1.7,2
		c0.8,0.5,1.7,0.7,2.6,0.7c1.2,0,2.1-0.3,2.8-0.8c0.7-0.6,1-1.3,1-2.2c0-1.1-1.1-2.2-3.4-3.3c-0.7-0.4-1.3-0.6-1.7-0.9
		c-2.1-1.1-3.5-2.1-4.3-3.1c-0.8-1-1.2-2.2-1.2-3.6c0-1.9,0.8-3.5,2.3-4.8c1.5-1.2,3.5-1.9,6-1.9c1.4,0,2.6,0.2,3.7,0.7
		c1,0.5,1.9,1.3,2.7,2.3l-3,2.8c-0.4-0.7-0.8-1.2-1.4-1.5c-0.6-0.3-1.3-0.5-2.1-0.5c-1,0-1.8,0.2-2.4,0.7c-0.6,0.5-0.9,1.1-0.9,1.9
		c0,1.2,1.2,2.4,3.6,3.4c0.5,0.2,0.8,0.4,1.1,0.5c2,0.9,3.5,1.9,4.4,3.1c1,1.1,1.4,2.4,1.4,3.9c0,2.2-0.7,4-2.3,5.3
		c-1.5,1.3-3.5,2-6,2c-1.8,0-3.3-0.3-4.6-0.9C435.1,265.9,434.1,265,433.5,263.8z M415.1,263.8l2.8-3.2c0.4,0.9,0.9,1.5,1.7,2
		c0.8,0.5,1.7,0.7,2.6,0.7c1.2,0,2.1-0.3,2.8-0.8c0.7-0.6,1-1.3,1-2.2c0-1.1-1.1-2.2-3.4-3.3c-0.7-0.4-1.3-0.6-1.7-0.9
		c-2.1-1.1-3.5-2.1-4.3-3.1c-0.8-1-1.2-2.2-1.2-3.6c0-1.9,0.8-3.5,2.3-4.8c1.5-1.2,3.5-1.9,6-1.9c1.4,0,2.6,0.2,3.7,0.7
		c1,0.5,1.9,1.3,2.7,2.3l-3,2.8c-0.4-0.7-0.8-1.2-1.4-1.5c-0.6-0.3-1.3-0.5-2.1-0.5c-1,0-1.8,0.2-2.4,0.7c-0.6,0.5-0.9,1.1-0.9,1.9
		c0,1.2,1.2,2.4,3.6,3.4c0.5,0.2,0.8,0.4,1.1,0.5c2,0.9,3.5,1.9,4.4,3.1c1,1.1,1.4,2.4,1.4,3.9c0,2.2-0.7,4-2.3,5.3
		c-1.5,1.3-3.5,2-6,2c-1.8,0-3.3-0.3-4.6-0.9C416.7,265.9,415.8,265,415.1,263.8z M397.9,266.8v-23.5h13.8v4.2h-8.8v4.8h8.8v4.3
		h-8.8v5.9h8.8v4.3H397.9z M380.2,266.8v-23.5h13.8v4.2h-8.8v4.8h8.8v4.3h-8.8v10.1H380.2z M363.5,263c2.1,0,3.9-0.7,5.3-2.2
		c1.4-1.5,2.1-3.4,2.1-5.6c0-2.2-0.7-4.1-2.1-5.6c-1.4-1.5-3.1-2.3-5.2-2.3c-2.1,0-3.9,0.8-5.3,2.3c-1.4,1.5-2.1,3.4-2.1,5.6
		c0,2.3,0.7,4.1,2.1,5.6C359.6,262.2,361.4,263,363.5,263z M376,255.1c0,1.7-0.3,3.3-0.9,4.8c-0.6,1.5-1.5,2.8-2.7,3.9
		c-1.2,1.2-2.6,2.1-4.1,2.7c-1.5,0.6-3.1,0.9-4.7,0.9c-1.4,0-2.8-0.2-4.2-0.7c-1.4-0.5-2.6-1.2-3.8-2.1c-1.5-1.2-2.6-2.6-3.4-4.2
		c-0.8-1.6-1.2-3.4-1.2-5.3c0-1.7,0.3-3.3,0.9-4.8c0.6-1.5,1.5-2.8,2.7-3.9c1.2-1.1,2.5-2,4.1-2.7c1.6-0.6,3.2-0.9,4.8-0.9
		c1.6,0,3.2,0.3,4.8,0.9c1.5,0.6,2.9,1.5,4.1,2.7c1.2,1.2,2.1,2.5,2.7,4C375.7,251.9,376,253.5,376,255.1z M337.2,253.4h0.8
		c2,0,3.4-0.2,4-0.7c0.7-0.4,1-1.2,1-2.3c0-1.2-0.3-2-1-2.5c-0.7-0.5-2-0.7-3.9-0.7h-0.8V253.4z M349.1,266.8h-5.8l-6.2-11v11h-5
		v-23.5h7.2c2.8,0,5,0.6,6.4,1.7c1.4,1.1,2.1,2.8,2.1,5c0,1.6-0.5,3-1.5,4.1c-1,1.1-2.2,1.8-3.8,2L349.1,266.8z M313.9,266.8v-23.5
		h5.8c3.1,0,5.3,0.6,6.8,1.8c1.5,1.2,2.2,3,2.2,5.5c0,2.3-0.7,4.1-2.2,5.3c-1.5,1.3-3.5,1.9-6.1,1.9h-1.4v9H313.9z M318.9,254h0.7
		c1.4,0,2.4-0.3,3-0.8c0.6-0.6,0.9-1.5,0.9-2.7c0-1.2-0.3-2-0.9-2.5c-0.6-0.5-1.6-0.8-3-0.8h-0.7V254z M287.1,263
		c2.1,0,3.9-0.7,5.3-2.2c1.4-1.5,2.1-3.4,2.1-5.6c0-2.2-0.7-4.1-2.1-5.6c-1.4-1.5-3.1-2.3-5.2-2.3c-2.1,0-3.9,0.8-5.3,2.3
		c-1.4,1.5-2.1,3.4-2.1,5.6c0,2.3,0.7,4.1,2.1,5.6C283.2,262.2,284.9,263,287.1,263z M299.6,255.1c0,1.7-0.3,3.3-0.9,4.8
		c-0.6,1.5-1.5,2.8-2.7,3.9c-1.2,1.2-2.6,2.1-4.1,2.7c-1.5,0.6-3.1,0.9-4.7,0.9c-1.4,0-2.8-0.2-4.2-0.7c-1.4-0.5-2.6-1.2-3.8-2.1
		c-1.5-1.2-2.6-2.6-3.4-4.2c-0.8-1.6-1.2-3.4-1.2-5.3c0-1.7,0.3-3.3,0.9-4.8c0.6-1.5,1.5-2.8,2.7-3.9c1.2-1.1,2.5-2,4.1-2.7
		c1.6-0.6,3.2-0.9,4.8-0.9c1.6,0,3.2,0.3,4.8,0.9c1.5,0.6,2.9,1.5,4.1,2.7c1.2,1.2,2.1,2.5,2.7,4
		C299.3,251.9,299.6,253.5,299.6,255.1z M267.1,247.6v19.2h-5v-19.2h-5.7v-4.3h16.5v4.3H267.1z M231,266.8v-23.5h5.2l10.4,13.7
		c0.3,0.4,0.6,0.9,1,1.6c0.4,0.7,0.7,1.5,1.1,2.5c-0.1-0.7-0.2-1.4-0.3-2.1c-0.1-0.7-0.1-1.5-0.1-2.6v-13.1h4.8v23.5h-4.9
		l-10.7-13.9c-0.3-0.4-0.6-0.9-1-1.6c-0.4-0.7-0.7-1.5-1.1-2.5c0.1,0.7,0.2,1.4,0.3,2c0.1,0.7,0.1,1.6,0.1,2.6v13.4H231z
		 M212.3,266.8v-23.5h13.8v4.2h-8.8v4.8h8.8v4.3h-8.8v5.9h8.8v4.3H212.3z M181.1,266.8l3.6-23.5h5.3l4.5,13.8
		c0.1,0.3,0.2,0.7,0.3,1.3c0.1,0.6,0.2,1.2,0.3,1.9c0.1-0.7,0.2-1.4,0.3-1.9c0.1-0.6,0.2-1,0.3-1.3l4.6-13.8h5.2l3.6,23.5h-4.8
		l-1.7-14.1c-0.1-1-0.2-1.8-0.3-2.4c0-0.5-0.1-1-0.1-1.5c0-0.2,0-0.4,0-0.6c0-0.1,0-0.2,0-0.3c-0.2,0.9-0.3,1.7-0.5,2.4
		c-0.1,0.7-0.3,1.2-0.4,1.5l-5,15h-2.8l-4.9-15c0-0.1-0.1-0.5-0.3-1.2c-0.1-0.6-0.3-1.5-0.6-2.8v0.7c0,1.1-0.1,2.4-0.3,4l0,0.1
		l-1.7,14.1H181.1z M157,266.8l8.9-23.5h5.7l9.1,23.5H175l-1.9-5H164l-1.6,5H157z M171.9,257.9l-2.6-7.6c-0.1-0.2-0.2-0.6-0.3-1.2
		c-0.1-0.5-0.2-1.2-0.4-2c-0.1,0.8-0.3,1.4-0.4,2c-0.1,0.6-0.2,1-0.3,1.2l-2.5,7.5H171.9z M149.4,266.8v-23.5h5v23.5H149.4z
		 M133.2,266.8v-23.5h5v19.2h8v4.3H133.2z M118.5,254.4h10.7c0,0.1,0,0.3,0,0.4c0,0.2,0,0.4,0,0.7c0,3.5-1,6.4-3,8.5
		c-2,2.2-4.6,3.3-7.8,3.3c-3.6,0-6.6-1.2-9-3.5c-2.4-2.3-3.5-5.3-3.5-8.9c0-3.5,1.2-6.5,3.6-8.8c2.4-2.3,5.4-3.5,9-3.5
		c1.9,0,3.7,0.4,5.2,1.2c1.6,0.8,3,2,4.3,3.6l-3.4,2.5c-0.8-1-1.7-1.8-2.7-2.3c-0.9-0.5-2-0.7-3.2-0.7c-2.3,0-4.2,0.7-5.6,2.2
		c-1.4,1.4-2.1,3.4-2.1,5.8c0,2.4,0.7,4.3,2.1,5.7c1.4,1.5,3.2,2.2,5.5,2.2c1.6,0,3-0.4,4-1.2c1-0.8,1.5-1.8,1.5-3v-0.3h-5.6V254.4z
		 M96.4,266.8v-23.5h5v23.5H96.4z M76.8,266.8v-23.5h4.4c2.3,0,3.9,0.1,5,0.3c1,0.2,2,0.5,2.7,0.9c0.9,0.5,1.6,1.2,2.1,2.1
		c0.5,0.9,0.7,1.8,0.7,2.9c0,1.4-0.4,2.5-1.2,3.3c-0.8,0.8-2.1,1.4-3.7,1.7c1.9,0.3,3.3,0.9,4.3,1.8c1,1,1.4,2.2,1.4,3.8
		c0,1.2-0.3,2.2-0.8,3.2c-0.6,1-1.3,1.7-2.3,2.2c-0.9,0.5-1.9,0.8-3,1c-1.2,0.2-3.1,0.3-5.8,0.3h-0.5H76.8z M81.8,252.7h1.1
		c1.5,0,2.6-0.2,3.2-0.6c0.6-0.4,0.9-1.1,0.9-2.1c0-1-0.3-1.7-0.9-2.1c-0.6-0.4-1.7-0.6-3.2-0.6h-1.2V252.7z M81.8,262.9h2
		c1.3,0,2.2-0.3,2.9-0.8c0.7-0.6,1-1.4,1-2.4c0-1-0.3-1.8-1-2.3c-0.6-0.5-1.6-0.8-2.8-0.8h-2V262.9z M57.2,266.8v-23.5h4.4
		c2.3,0,3.9,0.1,5,0.3c1,0.2,2,0.5,2.7,0.9c0.9,0.5,1.6,1.2,2.1,2.1c0.5,0.9,0.7,1.8,0.7,2.9c0,1.4-0.4,2.5-1.2,3.3
		c-0.8,0.8-2.1,1.4-3.7,1.7c1.9,0.3,3.3,0.9,4.3,1.8c1,1,1.4,2.2,1.4,3.8c0,1.2-0.3,2.2-0.8,3.2c-0.6,1-1.3,1.7-2.3,2.2
		c-0.9,0.5-1.9,0.8-3,1c-1.2,0.2-3.1,0.3-5.8,0.3h-0.5H57.2z M62.2,252.7h1.1c1.5,0,2.6-0.2,3.2-0.6c0.6-0.4,0.9-1.1,0.9-2.1
		c0-1-0.3-1.7-0.9-2.1c-0.6-0.4-1.7-0.6-3.2-0.6h-1.2V252.7z M62.2,262.9h2c1.3,0,2.2-0.3,2.9-0.8c0.7-0.6,1-1.4,1-2.4
		c0-1-0.3-1.8-1-2.3c-0.6-0.5-1.6-0.8-2.8-0.8h-2V262.9z M31,266.8l8.9-23.5h5.7l9.1,23.5H49l-1.9-5H38l-1.6,5H31z M45.9,257.9
		l-2.6-7.6c-0.1-0.2-0.2-0.6-0.3-1.2c-0.1-0.5-0.2-1.2-0.4-2c-0.1,0.8-0.3,1.4-0.4,2c-0.1,0.6-0.2,1-0.3,1.2l-2.5,7.5H45.9z"/>
	<rect x="28.5" y="223.8" class="st2" width="735.6" height="2.7"/>
</g>
<g>
</g>
<g>
</g>
<g>
</g>
<g>
</g>
<g>
</g>
<g>
</g>
<g>
</g>
<g>
</g>
<g>
</g>
<g>
</g>
<g>
</g>
<g>
</g>
<g>
</g>
<g>
</g>
<g>
</g>
</svg>
