<?xml version="1.0" encoding="UTF-8"?>
<svg id="Layer_1" data-name="Layer 1" xmlns="http://www.w3.org/2000/svg" version="1.1" viewBox="0 0 900 200">
  <defs>
    <style>
      .cls-1, .cls-2, .cls-3, .cls-4, .cls-5 {
        stroke-width: 0px;
      }

      .cls-1, .cls-4 {
        fill-rule: evenodd;
      }

      .cls-1, .cls-5 {
        fill: #ec1c24;
      }

      .cls-2, .cls-4 {
        fill: #404041;
      }

      .cls-3 {
        fill: #000;
      }

      .cls-6 {
        display: none;
      }
    </style>
  </defs>
  <g class="cls-6">
    <path class="cls-3" d="M196.3,97l-21.1-57h13.5l11.1,35.6c.2.7.6,2.1,1,4.1s.9,4.2,1.4,6.7c.4-2.4.7-4.6,1.1-6.5.4-1.9.8-3.4,1.2-4.7l11.3-35.2h13.3l-21.3,57h-11.6.1Z"/>
    <path class="cls-3" d="M254.9,97l-21.1-57h13.5l11.1,35.6c.2.7.6,2.1,1,4.1s.9,4.2,1.4,6.7c.4-2.4.7-4.6,1.1-6.5s.8-3.4,1.2-4.7l11.3-35.2h13.3l-21.4,57h-11.5.1Z"/>
    <path class="cls-3" d="M295.2,97v-57h33.6v10.3h-21.4v11.8h21.4v10.4h-21.4v24.7h-12.2v-.2Z"/>
    <path class="cls-3" d="M201.4,124.3v46.7h-12.2v-46.7h-13.9v-10.4h40.2v10.4h-14.1Z"/>
    <path class="cls-3" d="M266.8,171h-14.1l-15-26.7v26.7h-12.2v-57h17.5c6.9,0,12.1,1.3,15.6,4.1,3.4,2.7,5.2,6.7,5.2,12.1s-1.2,7.3-3.6,10.1-5.4,4.4-9.2,4.9l15.7,25.9h.1ZM237.7,138.3h1.8c5,0,8.2-.6,9.8-1.6s2.4-2.9,2.4-5.6-.8-4.8-2.5-6-4.9-1.8-9.6-1.8h-1.8v14.9h0Z"/>
    <path class="cls-3" d="M275.3,171v-57h33.6v10.3h-21.4v11.8h21.4v10.4h-21.4v14.3h21.4v10.4h-33.6v-.2Z"/>
    <path class="cls-3" d="M323.1,171v-57h12.7l25.3,33.2c.7.9,1.5,2.2,2.4,4,.8,1.7,1.8,3.7,2.7,6-.3-1.7-.5-3.4-.6-5-.1-1.7-.2-3.7-.2-6.2v-32h11.6v57h-12l-26-33.8c-.7-.9-1.5-2.2-2.4-4-.8-1.7-1.8-3.7-2.7-6.1.3,1.6.5,3.3.6,5s.2,3.8.2,6.4v32.6h-11.6Z"/>
    <path class="cls-3" d="M413.1,124.3v46.7h-12.2v-46.7h-13.9v-10.4h40.2v10.4h-14.1Z"/>
    <path class="cls-3" d="M437.5,171v-57h12.2v57h-12.2Z"/>
    <path class="cls-3" d="M464.1,171v-57h12.7l25.3,33.2c.7.9,1.5,2.2,2.4,4,.8,1.7,1.8,3.7,2.7,6-.3-1.7-.5-3.4-.6-5-.1-1.7-.2-3.7-.2-6.2v-32h11.7v57h-12l-26-33.8c-.7-.9-1.5-2.2-2.4-4-.8-1.7-1.8-3.7-2.7-6.1.3,1.6.5,3.3.6,5s.2,3.8.2,6.4v32.6h-11.7,0Z"/>
    <path class="cls-3" d="M591.3,142.6c0,4.1-.8,7.9-2.3,11.6-1.5,3.6-3.7,6.9-6.6,9.6-2.9,2.8-6.3,5-10,6.5s-7.6,2.2-11.5,2.2-6.9-.6-10.2-1.8c-3.4-1.2-6.4-2.9-9.2-5.1-3.6-2.9-6.4-6.3-8.3-10.2-1.9-4-2.9-8.3-2.9-12.8s.8-8,2.2-11.6c1.5-3.6,3.7-6.8,6.7-9.6,2.9-2.8,6.2-5,9.9-6.4,3.8-1.5,7.7-2.3,11.7-2.3s7.8.8,11.6,2.3,7.1,3.7,9.9,6.4c2.9,2.8,5.1,6,6.6,9.7,1.5,3.6,2.3,7.4,2.3,11.5h0ZM561,161.7c5.2,0,9.5-1.8,12.8-5.5,3.4-3.6,5-8.2,5-13.6s-1.7-9.9-5.1-13.6c-3.4-3.7-7.6-5.5-12.7-5.5s-9.5,1.8-12.9,5.5-5.1,8.3-5.1,13.6,1.7,10.1,5,13.6c3.4,3.6,7.6,5.5,13,5.5Z"/>
    <path class="cls-3" d="M141.5,97.4c4.6-13.2,8.1-27.1,10.7-41.8-17.2-15.3-34.5-24.6-51.7-27.8-4.3-4.9-9.1-9.5-14.3-13.8h.9c25.6,0,51.1,11.6,76,34.7l2.5,2.3-.5,3.3c-4.3,26.6-11.7,50.9-22.2,72.8,1.2-7.4,1.4-15,.2-22.5-.3-1.6-.9-4.2-1.6-7.2M31.6,127.5c-10.6-22-18.1-46.4-22.4-73.2l-.5-3.3,2.5-2.3c19-17.6,38.4-28.5,57.8-32.7.9,3.9,1.5,8.1,1.8,12.5-7.3,1.6-14.6,4.4-22,8.2l-1.1-.8v1.4c-8.5,4.6-17.1,10.7-25.6,18.3,2.8,16.5,7,32.1,12.4,46.7-1.9,7.1-3.2,15.1-2.9,25.2Z"/>
    <path class="cls-3" d="M77.3,145.7c-6.1-2-19.5-13.7-22.8-20.6-3.3,21.4,6.1,43,23.3,56.3l-5.4-12.8c-1.7-4.5-3-10.5-2.3-15.7,1.3.5,7.6,8.5,22.7,11-.7-2-2.2-4.4-3.1-6.5-12.2-27.2-6.3-56.9-1.4-85-1.1,1.3-3.6,7.1-4.4,9.1-10.3,23.7-11.7,39.2-6.6,64.2"/>
    <path class="cls-3" d="M83.3,193.3c34.2-12.2,61.9-51.1,56.1-88.2-.8-5-5.1-21.3-7.6-23.8-1,4.2-2.9,8.8-4.6,12.7-2.6,5.7-6.3,10-6.5,10.4,0-2.3.6-6,.7-8.5,2.7-38.4-20.1-68.6-51.1-89.2.5,2.6,1.5,5.5,2.1,8.3,3.8,17.1,3.5,41.2-9.1,55.1-.4.4-.2.3-.6.6,0-8.7-3.5-22.7-11.2-27.7,2.2,42.6-20.2,48.8-16,92.7,6.3,11.8,13.5,22.9,21.8,33.3-8-15.3-11.5-31.2-10-48.5.7-7.4,5.5-23,10.6-28.2-.6,8.9.5,16.9,4.7,24.4.7,1.2,6.5,8.7,6.6,8.8.2-8.7,0-16.1,2.1-25,2.7-11.4,7.9-22.4,10.8-33.9,1.5-6,2.5-12.2,3.9-18.2,5.7,2.7,13.9,11.7,17,17.1,11.4,19.7,2.9,59.9-10.3,78.1,6.7-.6,14.2-4.1,19.5-7.9,4.8-3.4,7.5-7.1,11.8-10.9-3.1,29.7-19,49.5-40.7,68.5"/>
  </g>
  <g>
    <path class="cls-5" d="M159.7,124.5l-22.1-59.8h14.1l11.6,37.3c.2.8.6,2.2,1,4.2.5,2.1,1,4.4,1.5,7.1.4-2.6.7-4.8,1.2-6.8.4-2,.8-3.6,1.2-4.9l11.8-36.9h14l-22.2,59.8h-12.1Z"/>
    <path class="cls-5" d="M223.2,124.5l-22.1-59.8h14.1l11.6,37.3c.2.8.6,2.2,1,4.2.5,2.1,1,4.4,1.5,7.1.4-2.6.7-4.8,1.2-6.8.4-2,.8-3.6,1.2-4.9l11.8-36.9h14l-22.2,59.8h-12.1Z"/>
    <path class="cls-5" d="M270.7,124.5v-59.8h35.2v10.8h-22.4v12.3h22.4v10.9h-22.4v25.8h-12.8Z"/>
    <path class="cls-5" d="M807.6,119.3c0-1.8.6-3.3,1.9-4.5,1.2-1.3,2.7-1.9,4.5-1.9s3.2.6,4.5,1.9c1.2,1.3,1.9,2.8,1.9,4.5s-.6,3.2-1.8,4.4c-1.2,1.2-2.7,1.8-4.5,1.8s-3.2-.6-4.5-1.8c-1.2-1.2-1.9-2.7-1.9-4.4Z"/>
    <path class="cls-5" d="M836.9,73.6c0-1.7.6-3.1,1.8-4.3,1.2-1.2,2.6-1.8,4.3-1.8s3.1.6,4.4,1.8,1.8,2.6,1.8,4.3-.6,3.1-1.8,4.3c-1.2,1.2-2.7,1.8-4.4,1.8s-3.1-.6-4.3-1.8c-1.2-1.2-1.8-2.7-1.8-4.3ZM837.9,124.5v-36.1h10.5v36.1h-10.5Z"/>
    <path class="cls-5" d="M867,124.5v-27.9h-5v-8.2h5v-12h10.5v12h5v8.2h-5v27.9h-10.5Z"/>
    <path class="cls-2" d="M345.8,75.6v48.9h-12.8v-48.9h-14.6v-10.9h42v10.9h-14.6Z"/>
    <path class="cls-2" d="M419.5,124.5h-14.7l-15.7-27.9v27.9h-12.8v-59.8h18.3c7.3,0,12.7,1.4,16.3,4.2,3.6,2.8,5.4,7.1,5.4,12.7s-1.2,7.6-3.7,10.5c-2.5,2.9-5.7,4.6-9.6,5.1l16.5,27.2ZM389.1,90.2h1.9c5.2,0,8.6-.6,10.2-1.7,1.7-1.1,2.5-3.1,2.5-5.9s-.9-5-2.7-6.3c-1.8-1.2-5.1-1.9-10.1-1.9h-1.9v15.7Z"/>
    <path class="cls-2" d="M433.7,124.5v-59.8h35.2v10.8h-22.4v12.3h22.4v10.9h-22.4v15h22.4v10.9h-35.2Z"/>
    <path class="cls-2" d="M488.9,124.5v-59.8h13.3l26.5,34.8c.8,1,1.6,2.4,2.5,4.1.9,1.8,1.9,3.9,2.8,6.3-.3-1.8-.5-3.5-.7-5.3s-.2-3.9-.2-6.5v-33.4h12.2v59.8h-12.5l-27.2-35.4c-.8-1-1.6-2.4-2.5-4.1s-1.9-3.9-2.9-6.4c.3,1.7.5,3.5.7,5.2s.2,4,.2,6.6v34.1h-12.2Z"/>
    <path class="cls-2" d="M588.5,75.6v48.9h-12.8v-48.9h-14.6v-10.9h42v10.9h-14.6Z"/>
    <path class="cls-2" d="M619.2,124.5v-59.8h12.8v59.8h-12.8Z"/>
    <path class="cls-2" d="M652.3,124.5v-59.8h13.3l26.5,34.8c.8,1,1.6,2.4,2.5,4.1.9,1.8,1.9,3.9,2.8,6.3-.3-1.8-.5-3.5-.7-5.3s-.2-3.9-.2-6.5v-33.4h12.2v59.8h-12.5l-27.2-35.4c-.8-1-1.6-2.4-2.5-4.1s-1.9-3.9-2.9-6.4c.3,1.7.5,3.5.7,5.2s.2,4,.2,6.6v34.1h-12.2Z"/>
    <path class="cls-2" d="M790.8,94.8c0,4.3-.8,8.3-2.4,12.1-1.6,3.8-3.9,7.2-6.9,10-3.1,3-6.6,5.2-10.5,6.8-3.9,1.6-7.9,2.4-12.1,2.4s-7.2-.6-10.7-1.9c-3.5-1.2-6.7-3-9.6-5.3-3.8-3-6.6-6.6-8.6-10.7-2-4.2-3-8.6-3-13.4s.8-8.3,2.4-12.1,3.9-7.1,6.9-10.1c3-2.9,6.5-5.2,10.4-6.8,4-1.6,8-2.4,12.2-2.4s8.2.8,12.1,2.4c3.9,1.6,7.4,3.9,10.4,6.8,3,2.9,5.3,6.3,6.9,10.1,1.6,3.8,2.4,7.8,2.4,12.1ZM759,114.7c5.4,0,9.9-1.9,13.4-5.7,3.5-3.8,5.3-8.6,5.3-14.3s-1.8-10.4-5.3-14.3c-3.6-3.9-8-5.8-13.4-5.8s-9.9,1.9-13.5,5.8c-3.6,3.9-5.3,8.6-5.3,14.3s1.8,10.5,5.3,14.3c3.5,3.8,8,5.7,13.6,5.7Z"/>
    <path class="cls-2" d="M206.6,173.9v-18.1h4.4c2.4,0,4.1.5,5.3,1.4,1.1.9,1.7,2.3,1.7,4.2s-.6,3.1-1.7,4.1c-1.1,1-2.7,1.5-4.7,1.5h-1.1v6.9h-3.9ZM210.5,163.9h.6c1.1,0,1.8-.2,2.3-.7.5-.4.7-1.1.7-2.1s-.2-1.5-.7-1.9c-.5-.4-1.2-.6-2.3-.6h-.6v5.3Z"/>
    <path class="cls-2" d="M258.1,164.8c0,1.3-.2,2.5-.7,3.7-.5,1.2-1.2,2.2-2.1,3-.9.9-2,1.6-3.2,2.1-1.2.5-2.4.7-3.7.7s-2.2-.2-3.2-.6c-1.1-.4-2-.9-2.9-1.6-1.1-.9-2-2-2.6-3.2-.6-1.3-.9-2.6-.9-4.1s.2-2.5.7-3.7,1.2-2.2,2.1-3c.9-.9,2-1.6,3.2-2.1,1.2-.5,2.4-.7,3.7-.7s2.5.2,3.7.7c1.2.5,2.2,1.2,3.2,2.1.9.9,1.6,1.9,2.1,3.1.5,1.1.7,2.4.7,3.7ZM248.5,170.9c1.6,0,3-.6,4.1-1.7s1.6-2.6,1.6-4.3-.5-3.2-1.6-4.3-2.4-1.8-4-1.8-3,.6-4.1,1.7c-1.1,1.2-1.6,2.6-1.6,4.3s.5,3.2,1.6,4.3c1.1,1.1,2.4,1.7,4.1,1.7Z"/>
    <path class="cls-2" d="M293.7,173.9h-4.5l-4.8-8.4v8.4h-3.9v-18.1h5.5c2.2,0,3.8.4,4.9,1.3,1.1.9,1.6,2.1,1.6,3.8s-.4,2.3-1.1,3.2c-.7.9-1.7,1.4-2.9,1.5l5,8.2ZM284.5,163.5h.6c1.6,0,2.6-.2,3.1-.5.5-.3.8-.9.8-1.8s-.3-1.5-.8-1.9-1.6-.6-3-.6h-.6v4.8Z"/>
    <path class="cls-2" d="M321.7,159.1v14.8h-3.9v-14.8h-4.4v-3.3h12.7v3.3h-4.4Z"/>
    <path class="cls-2" d="M344.1,173.9l6.9-18.1h4.4l7,18.1h-4.4l-1.5-3.8h-7l-1.3,3.8h-4.2ZM355.6,167l-2-5.8c0-.2-.1-.5-.2-.9,0-.4-.2-.9-.3-1.5-.1.6-.2,1.1-.3,1.6,0,.5-.2.8-.2.9l-2,5.8h5Z"/>
    <path class="cls-2" d="M383.2,173.9v-18.1h3.9v14.8h6.2v3.3h-10Z"/>
    <path class="cls-2" d="M414.7,173.9v-18.1h10.6v3.3h-6.8v3.7h6.8v3.3h-6.8v4.5h6.8v3.3h-10.6Z"/>
    <path class="cls-2" d="M469.5,173.9l6.9-18.1h4.4l7,18.1h-4.4l-1.5-3.8h-7l-1.3,3.8h-4.2ZM481,167l-2-5.8c0-.2-.1-.5-.2-.9,0-.4-.2-.9-.3-1.5-.1.6-.2,1.1-.3,1.6,0,.5-.2.8-.2.9l-2,5.8h5Z"/>
    <path class="cls-2" d="M522.8,160.5c-.8-.7-1.6-1.2-2.4-1.5-.8-.3-1.7-.5-2.6-.5-1.9,0-3.5.6-4.6,1.7-1.1,1.2-1.7,2.7-1.7,4.6s.5,3.4,1.6,4.5c1.1,1.1,2.5,1.7,4.3,1.7s2-.2,2.9-.5c.9-.4,1.7-.9,2.5-1.6v4c-.8.5-1.7.8-2.6,1.1-.9.2-1.9.4-2.8.4-2.9,0-5.2-.9-7.1-2.7-1.8-1.8-2.8-4.1-2.8-6.8s.9-5,2.8-6.8,4.2-2.7,7.2-2.7,1.9.1,2.8.3c.9.2,1.8.5,2.7,1v3.9Z"/>
    <path class="cls-2" d="M563.7,176h-3.8l-2-2.3c-.9.2-1.6.4-2.2.5-.6.1-1.1.2-1.6.2-1.2,0-2.5-.2-3.6-.7-1.2-.5-2.2-1.2-3.1-2-.9-.9-1.6-1.9-2.1-3.1-.5-1.2-.7-2.4-.7-3.6s.2-2.5.7-3.6c.5-1.1,1.2-2.2,2.1-3.1.9-.9,1.9-1.6,3.1-2,1.2-.5,2.4-.7,3.7-.7s2.5.2,3.7.7c1.2.5,2.2,1.2,3.1,2,.9.9,1.6,1.9,2.1,3.1.5,1.1.7,2.4.7,3.6s-.3,2.7-.9,4-1.4,2.3-2.6,3.3l3.3,3.9ZM556.8,167.7l1.3,1.6c.6-.6,1-1.3,1.3-2s.4-1.6.4-2.4c0-1.7-.5-3.2-1.6-4.3s-2.4-1.8-4-1.8-3,.6-4.1,1.7c-1.1,1.2-1.6,2.6-1.6,4.3s.5,3.2,1.6,4.3c1.1,1.1,2.4,1.7,4,1.7s.3,0,.6,0c.2,0,.5,0,.9-.1l-2.6-3h3.8Z"/>
    <path class="cls-2" d="M601.9,155.8v11.3c0,2.5-.6,4.3-1.9,5.5s-3.2,1.8-5.8,1.8-4.6-.6-5.9-1.8c-1.3-1.2-1.9-3-1.9-5.5v-11.3h3.8v10.6c0,1.5.3,2.6,1,3.4.7.8,1.6,1.1,3,1.1s2.3-.4,3-1.1,1-1.9,1-3.4v-10.6h3.8Z"/>
    <path class="cls-2" d="M625,173.9v-18.1h3.9v18.1h-3.9Z"/>
    <path class="cls-2" d="M650.8,171.6l2.1-2.4c.3.7.7,1.2,1.3,1.6.6.4,1.3.6,2,.6s1.6-.2,2.1-.6c.5-.4.8-1,.8-1.7s-.9-1.7-2.6-2.6c-.6-.3-1-.5-1.3-.7-1.6-.8-2.7-1.6-3.3-2.4-.6-.8-.9-1.7-.9-2.8s.6-2.7,1.8-3.7c1.2-1,2.7-1.4,4.6-1.4s2,.2,2.8.6c.8.4,1.5,1,2.1,1.8l-2.3,2.2c-.3-.5-.6-.9-1.1-1.2-.4-.3-1-.4-1.6-.4s-1.4.2-1.9.6-.7.9-.7,1.5c0,1,.9,1.8,2.8,2.6.4.2.7.3.9.4,1.5.7,2.7,1.5,3.4,2.4.7.9,1.1,1.9,1.1,3,0,1.7-.6,3-1.7,4.1-1.2,1-2.7,1.5-4.7,1.5s-2.6-.2-3.6-.7c-1-.5-1.7-1.2-2.2-2.1Z"/>
    <path class="cls-2" d="M691.8,159.1v14.8h-3.9v-14.8h-4.4v-3.3h12.7v3.3h-4.4Z"/>
    <path class="cls-2" d="M718.1,173.9v-18.1h3.9v18.1h-3.9Z"/>
    <rect class="cls-5" x="90.4" y="137.1" width="787.1" height="3.3"/>
    <path class="cls-2" d="M107.5,91c3.4-9.7,6-19.9,7.8-30.7-12.6-11.2-25.3-18-37.9-20.4-3.2-3.6-6.7-7-10.5-10.1.2,0,.4,0,.7,0,18.8,0,37.4,8.5,55.7,25.4l1.8,1.7-.4,2.4c-3.1,19.5-8.6,37.3-16.3,53.4.9-5.4,1-11,.1-16.5-.2-1.2-.6-3.1-1.1-5.2M27,113c-7.8-16.2-13.3-34-16.4-53.7l-.4-2.4,1.8-1.7c14-12.9,28.1-20.9,42.4-24,.6,2.8,1.1,5.9,1.3,9.2-5.4,1.2-10.7,3.2-16.1,6l-.8-.5v1c-6.2,3.4-12.5,7.9-18.7,13.4,2.1,12.1,5.1,23.5,9.1,34.2-1.4,5.2-2.3,11-2.2,18.5Z"/>
    <path class="cls-4" d="M60.5,126.4c-4.5-1.4-14.3-10.1-16.7-15.1-2.4,15.7,4.5,31.5,17.1,41.3l-3.9-9.4c-1.2-3.3-2.2-7.7-1.7-11.5.9.4,5.6,6.3,16.6,8-.5-1.5-1.6-3.2-2.3-4.8-9-19.9-4.6-41.7-1.1-62.3-.8,1-2.6,5.2-3.3,6.7-7.5,17.4-8.5,28.8-4.7,47.1"/>
    <path class="cls-1" d="M64.9,161.3c25-8.9,45.4-37.5,41.1-64.6-.6-3.7-3.7-15.6-5.5-17.4-.8,3.1-2.1,6.5-3.4,9.3-1.9,4.2-4.6,7.4-4.8,7.7,0-1.7.4-4.4.5-6.2,2-28.1-14.8-50.3-37.5-65.4.4,1.9,1.1,4,1.6,6.1,2.8,12.5,2.5,30.2-6.6,40.4-.3.3-.2.2-.4.4,0-6.4-2.6-16.6-8.2-20.3,1.6,31.2-14.8,35.8-11.7,68,4.6,8.7,9.9,16.8,15.9,24.4-5.9-11.2-8.4-22.8-7.3-35.5.5-5.4,4-16.8,7.8-20.7-.5,6.5.3,12.4,3.4,17.9.5.9,4.8,6.4,4.8,6.5.2-6.4,0-11.8,1.6-18.3,1.9-8.4,5.8-16.4,7.9-24.8,1.1-4.4,1.8-8.9,2.9-13.3,4.2,2,10.2,8.6,12.5,12.5,8.3,14.4,2.1,43.9-7.6,57.3,4.9-.4,10.4-3,14.3-5.8,3.5-2.5,5.5-5.2,8.7-8-2.4,21.7-14,36.2-30,50.2"/>
  </g>
</svg>